<svg preserveAspectRatio="none" overflow="visible" style="display: block;" width="40" height="40" viewBox="0 0 40 40" fill="none" xmlns="http://www.w3.org/2000/svg">
<g id="google_color" clip-path="url(#clip0_0_12)">
<path id="Vector" d="M20.8 18.2V23.6667H33.8667C33.4667 26.7333 32.445 28.9783 30.8883 30.555C28.9767 32.4667 26 34.555 20.8 34.555C12.755 34.555 6.46667 28.0667 6.46667 20.0217C6.46667 11.9767 12.755 5.48833 20.8 5.48833C25.1333 5.48833 28.3117 7.2 30.645 9.4L34.49 5.555C31.245 2.4 26.8883 0 20.8 0C9.77833 0 0.511667 8.97833 0.511667 20C0.511667 31.0217 9.77833 40 20.8 40C26.755 40 31.245 38.045 34.755 34.4C38.355 30.8 39.4883 25.7117 39.4883 21.6217C39.4883 20.355 39.4 19.1767 39.2 18.2H20.8Z" fill="black"/>
</g>
<defs>
<clipPath id="clip0_0_12">
<rect width="40" height="40" fill="white"/>
</clipPath>
</defs>
</svg>
