<svg preserveAspectRatio="none" overflow="visible" style="display: block;" width="267.907" height="138.969" viewBox="0 0 267.907 138.969" fill="none" xmlns="http://www.w3.org/2000/svg">
<g id="Group">
<path id="Vector" d="M65.491 34.2587C72.6981 37.7519 78.1649 43.756 80.5248 51.3968C85.1161 66.2635 79.7721 80.0858 72.4388 87.1893C68.5723 90.9351 64.3973 92.5251 61.2622 91.4423C58.2476 90.3994 56.2602 86.9794 55.5156 81.5519C52.9525 62.8781 57.6709 46.808 65.491 34.2587ZM146.134 15.8358C151.696 23.0183 152.213 30.9277 151.8 35.9102C150.942 46.2067 145.418 54.2441 140.79 55.7863C138.718 56.4758 136.862 55.9154 135.271 54.1209C131.223 49.5546 131.986 39.0804 137.125 28.6496C139.305 24.2237 142.332 19.7503 146.134 15.8358ZM5.64014 138.958C5.83448 138.985 6.03823 138.963 6.2346 138.888C6.85915 138.649 7.17151 137.948 6.9325 137.324C0.719914 121.08 1.87905 87.1706 4.55717 74.8567C11.3681 43.5448 31.7502 31.62 48.5535 30.9007C53.8231 30.6757 58.8129 31.5253 63.2507 33.2761C55.2733 46.208 50.4863 62.7188 53.1167 81.8822C54.2249 89.958 57.7282 92.7841 60.4715 93.7331C64.5455 95.143 69.5191 93.3911 74.1228 88.9315C81.9877 81.3122 87.7331 66.5304 82.8381 50.6807C80.3018 42.4686 74.484 36.001 66.8192 32.2049C72.1648 24.2325 78.7462 17.7944 85.3817 13.1522C102.007 1.52119 120.639 -0.803691 135.223 6.93262C139.174 9.0286 142.22 11.4343 144.562 13.9768C140.496 18.1251 137.27 22.8768 134.953 27.5774C129.302 39.0481 128.702 50.3613 133.46 55.7293C135.688 58.2454 138.564 59.0816 141.553 58.0862C147.8 56.0048 153.36 46.3525 154.212 36.1112C154.9 27.8352 147.831 14.1757 147.831 14.1757C147.831 14.1757 164.552 2.92029 176.14 3.74707C190.28 4.74721 203.056 13.3385 215.413 21.6389C229.998 31.4384 245.046 41.5389 262.44 39.1579C260.645 40.693 258.114 42.7639 254.954 45.3484L250.767 48.7785C250.25 49.2027 250.174 49.9665 250.597 50.4839C250.8 50.7306 251.079 50.8769 251.372 50.9167C251.693 50.9603 252.032 50.8753 252.301 50.6528L256.487 47.2257C267.01 38.6168 268.362 37.5106 267.8 35.8798C267.372 34.6452 266.018 34.6197 263.963 34.5789C260.256 34.5072 253.361 34.3734 248.392 27.8085C247.99 27.2746 247.229 27.1698 246.697 27.574C246.164 27.9781 246.059 28.7382 246.463 29.2716C251.019 35.2921 256.848 36.5746 261.101 36.8885C245.098 38.6569 231.297 29.3907 216.762 19.6262C204.144 11.1497 191.103 2.38955 176.313 1.329C163.99 0.449821 153.834 5.31262 146.259 12.3269C143.576 9.40308 140.258 6.86077 136.356 4.79098C120.955 -3.38083 101.38 -0.9976 83.9946 11.1654C77.0426 16.0293 70.1482 22.799 64.5821 31.1946C59.7276 29.2054 54.243 28.2312 48.4499 28.4792C30.745 29.2366 9.29482 41.6825 2.19156 74.341C-0.539529 86.8976 -1.69945 121.535 4.67127 138.19C4.83489 138.618 5.21557 138.9 5.64014 138.958Z" fill="#DF3416"/>
<path id="Vector_2" d="M26.0072 33.0467C26.1987 33.2297 26.4344 33.3368 26.6782 33.3699C27.0504 33.4206 27.44 33.2979 27.7188 33.005C31.089 29.4633 35.6069 27.1188 40.44 26.4033C41.1017 26.3052 41.5586 25.6893 41.4608 25.0271C41.3631 24.3652 40.7471 23.9076 40.086 24.0053C34.7211 24.7995 29.7064 27.4022 25.9655 31.3334C25.5046 31.8179 25.5229 32.5852 26.0072 33.0467Z" fill="#DF3416"/>
<path id="Vector_3" d="M45.004 26.2478C45.1774 26.2715 45.3582 26.2574 45.5363 26.2004C46.2152 25.9825 46.9612 25.9863 47.638 26.2113C48.2771 26.4256 48.9576 26.0788 49.1687 25.4435C49.3796 24.8085 49.0364 24.1225 48.4017 23.9112C47.2414 23.5249 45.9612 23.519 44.7961 23.8925C44.1594 24.0971 43.8092 24.7792 44.0134 25.4169C44.1607 25.8765 44.5561 26.1869 45.004 26.2478Z" fill="#DF3416"/>
<path id="Vector_4" d="M153.846 14.1132C153.411 13.6038 152.647 13.5437 152.14 13.9788C151.63 14.4134 151.571 15.1783 152.005 15.6873C155.298 19.5458 157.244 24.6677 157.346 29.7401C157.357 30.3453 157.811 30.8376 158.391 30.9165C158.453 30.9249 158.517 30.9288 158.579 30.9275C159.249 30.914 159.78 30.3607 159.766 29.6916C159.651 23.9855 157.55 18.4533 153.846 14.1132Z" fill="#DF3416"/>
<path id="Vector_5" d="M157.102 42.7206C157.177 42.7463 157.254 42.7643 157.329 42.7747C157.891 42.8511 158.448 42.5213 158.637 41.9631C159.333 39.9148 159.713 37.7787 159.766 35.6146C159.783 34.9457 159.253 34.39 158.586 34.3732C157.918 34.3566 157.362 34.8854 157.346 35.5548C157.297 37.4734 156.96 39.3668 156.345 41.1834C156.13 41.8171 156.468 42.5052 157.102 42.7206Z" fill="#DF3416"/>
<path id="Vector_6" d="M52.6535 92.9549C53.0572 93.0097 53.4794 92.8592 53.7557 92.5202C54.1783 92.0012 54.101 91.2378 53.5828 90.815C50.2601 88.1025 48.3678 83.5892 48.7615 79.3163C48.823 78.6499 48.3432 78.0598 47.6671 77.9983C47.0013 77.9368 46.4119 78.4273 46.3505 79.0939C45.8776 84.2251 48.0624 89.4362 52.0523 92.6933C52.2316 92.8398 52.4399 92.9259 52.6535 92.9549Z" fill="#DF3416"/>
</g>
</svg>
