<svg preserveAspectRatio="none" overflow="visible" style="display: block;" width="44.9998" height="31.2028" viewBox="0 0 44.9998 31.2028" fill="none" xmlns="http://www.w3.org/2000/svg">
<g id="Group">
<path id="Vector" d="M44.9726 9.48427C44.7097 7.98642 42.6069 7.56322 41.9159 7.42409C39.8993 7.01812 37.8484 6.67517 35.8202 6.40464C35.3386 6.341 34.8969 6.67851 34.8328 7.15963C34.7687 7.64074 35.1066 8.08284 35.5878 8.147C37.5779 8.41252 39.5902 8.74906 41.5692 9.14738C42.868 9.40877 43.1827 9.72422 43.2369 9.79198C43.2106 9.89033 42.9933 10.4467 41.3487 11.4462C41.0226 11.6444 40.6825 11.8124 40.3536 11.9751C39.7451 12.2759 39.1159 12.5869 38.5386 13.0971C38.1915 13.4037 37.9797 13.8288 37.7748 14.2399C37.4292 14.9335 37.2581 15.1804 36.9856 15.1836C36.9042 15.1847 36.8487 15.1791 36.813 15.1734C36.7863 15.051 36.7788 14.8139 36.7734 14.6481C36.7522 13.9888 36.7168 12.8855 35.6673 12.2857C34.6439 11.7011 32.2841 12.2783 31.5971 12.9213C31.1599 13.3305 30.582 13.9641 30.6129 14.738C30.6403 15.4235 31.1275 15.8114 31.3355 15.9769C31.3498 15.9883 31.3636 15.999 31.3762 16.0093C31.4232 16.0674 31.4673 16.1182 31.5072 16.164C31.5424 16.2046 31.589 16.2581 31.6101 16.2876C31.6106 16.3136 31.6075 16.3795 31.5776 16.5029C31.5323 16.598 31.3153 16.9411 30.7531 17.582C30.7231 17.6164 30.706 17.6374 30.7032 17.641C30.5114 17.8839 30.1288 18.1718 29.7588 18.4504C29.2456 18.8366 28.7608 19.2015 28.4785 19.648C28.3589 19.837 28.3045 20.0405 28.284 20.2546C28.0806 20.0187 27.8174 19.8353 27.4572 19.8032C26.8076 19.7446 26.4048 19.9954 26.1812 20.2156C25.5648 20.822 25.6343 21.7734 25.7078 22.7806C25.759 23.483 25.8292 24.4447 25.5391 24.7353C25.3876 24.8872 24.6941 24.9839 24.3218 25.0358C23.507 25.1496 22.6646 25.2671 22.2065 25.9101C21.3555 27.1044 22.0834 27.7911 22.3226 28.0168C22.3407 28.0338 22.3626 28.0545 22.3805 28.0723C22.3793 28.0811 22.3775 28.0914 22.3751 28.1034C22.3194 28.3798 22.2597 28.5428 22.2172 28.6336C21.9332 28.5043 21.4149 28.0814 21.0873 27.814C20.6522 27.4589 20.2022 27.0916 19.7266 26.8111C18.526 26.1026 17.6626 25.8809 16.927 26.092C16.0367 26.3475 15.6246 27.1414 15.2261 27.909C15.1365 28.0817 15.0432 28.2614 14.941 28.4437C14.6556 27.6118 14.2906 26.6693 13.8036 25.8675C12.9037 24.3862 11.7828 23.7055 10.4715 23.8432C9.97989 23.8951 8.83686 24.0156 8.81383 25.196C8.70327 25.3651 8.61836 25.5562 8.52282 25.7713C8.36137 26.1349 8.17829 26.5472 7.86865 26.8395C7.11709 27.5491 6.58569 27.8946 6.24538 27.8946C6.23834 27.8946 6.2314 27.8944 6.22463 27.8941C5.97898 27.8837 5.65272 27.6524 5.25501 27.2067C4.60866 26.4826 4.29445 25.6236 3.96204 24.714C3.66189 23.8931 3.33186 22.9906 2.72241 22.1461C2.72593 22.1328 2.72918 22.1193 2.73217 22.106C3.40577 21.6437 4.02497 21.1783 4.47998 20.5899C5.16809 19.6999 5.33816 18.675 4.98554 17.5436C4.69523 16.6122 3.91792 16.0242 3.16609 15.4555C2.51947 14.9662 1.9088 14.5041 1.77319 13.9417C1.70103 13.643 1.90063 13.2153 2.11192 12.7626C2.34035 12.2733 2.5991 11.7187 2.63347 11.0908C2.66423 10.5274 2.48915 10.0325 2.34844 9.63509C2.3001 9.4986 2.23172 9.3055 2.2093 9.19159C2.21783 9.18649 2.22758 9.18087 2.23875 9.17481C2.2398 9.17481 2.24086 9.17481 2.242 9.17481C2.50849 9.17481 3.21575 9.37775 3.69239 9.51451C4.72766 9.8114 5.70546 10.0922 6.46818 9.9414C7.31106 9.77467 8.20861 9.48427 9.07672 9.20346C9.51846 9.06063 9.93568 8.92554 10.3249 8.81366C11.0123 8.61599 11.5835 8.41059 12.136 8.21186C13.0863 7.87014 13.9071 7.575 15.0764 7.41214C15.5292 7.34912 16.5921 7.10241 17.587 6.79874C19.4501 6.23 19.9469 5.82561 20.1869 5.50524C20.2681 5.39687 20.3352 5.30898 20.3902 5.237C20.5652 5.00804 20.653 4.89316 20.719 4.731C20.8042 4.52182 20.8918 4.10864 20.5217 3.693L20.5185 3.68922C20.5107 3.67226 20.4911 3.62313 20.4697 3.52487C20.343 2.94399 19.9293 2.57748 19.597 2.28296C19.5122 2.20781 19.3953 2.10419 19.3257 2.0279C19.3549 1.98536 19.404 1.9233 19.4842 1.84165C19.5968 1.72731 19.6386 1.68415 20.3201 1.98615C20.4993 2.06551 20.6846 2.1476 20.8832 2.2151C21.4297 2.40091 22.9273 3.26365 23.4267 3.68026C23.8111 4.00106 23.8107 4.0785 23.8094 4.36661C23.8082 4.64663 23.8063 5.06983 24.0553 5.56694C24.0923 5.64086 24.1259 5.70871 24.1568 5.77103C24.378 6.21734 24.5114 6.48673 24.7865 6.69837C25.1448 6.97409 25.5145 6.96688 25.8718 6.95985C26.1569 6.95431 26.5469 6.94666 27.2135 7.02796C27.6947 7.08659 28.1337 6.74372 28.1924 6.26181C28.2511 5.7799 27.908 5.34167 27.4262 5.28296C26.6366 5.18672 26.1368 5.19657 25.8377 5.20228C25.8043 5.13654 25.7671 5.06148 25.7319 4.99055C25.7001 4.92621 25.6654 4.85616 25.6272 4.77987C25.5691 4.66377 25.5663 4.58502 25.5673 4.37443C25.5699 3.77079 25.4939 3.11582 24.5529 2.33068C23.9402 1.81933 22.262 0.827296 21.449 0.550877C21.3248 0.508689 21.1827 0.44567 21.0322 0.379048C20.4053 0.101311 19.2389 -0.415668 18.231 0.609237C17.7447 1.10389 17.5167 1.59195 17.5342 2.1012C17.5591 2.82551 18.0631 3.27218 18.4312 3.59843C18.544 3.69836 18.712 3.84725 18.7572 3.92126C18.7922 4.07718 18.8331 4.20902 18.8777 4.32196C18.8533 4.35386 18.8277 4.38805 18.8003 4.42453C18.3349 4.8152 15.7132 5.54875 14.834 5.67109C13.484 5.85909 12.5403 6.19835 11.5411 6.55766C11.0152 6.7468 10.4712 6.94236 9.839 7.12421C9.42204 7.24409 8.99146 7.38331 8.53566 7.53079C7.71598 7.79605 6.86862 8.07018 6.12734 8.2167C5.78201 8.28552 4.81626 8.00804 4.1772 7.82461C3.06906 7.50671 2.19392 7.25569 1.55688 7.55109C0.720507 7.93914 0.494713 8.52951 0.452701 8.95622C0.407173 9.41791 0.558171 9.8448 0.691502 10.2213C0.793632 10.5098 0.890137 10.7823 0.878448 10.9949C0.862715 11.2832 0.695897 11.6407 0.519235 12.0192C0.220315 12.6598 -0.151642 13.4569 0.0644833 14.3536C0.347407 15.5269 1.28169 16.2336 2.10585 16.8572C2.66098 17.2772 3.18508 17.6738 3.3076 18.0665C3.66857 19.2249 3.05139 19.7728 1.32845 20.934C1.18677 21.0295 1.04368 21.126 0.900333 21.2242C0.898927 21.2252 0.897432 21.2262 0.896026 21.2271C0.70451 21.3585 0.573991 21.5595 0.530309 21.7849V21.785C0.530309 21.7853 0.530221 21.7856 0.530133 21.7859C0.530133 21.7861 0.530045 21.7863 0.530045 21.7866L0.529958 21.7868C0.523981 21.8178 0.519674 21.8494 0.517125 21.8813C0.51484 21.9101 0.513961 21.939 0.514489 21.9676C0.518619 22.2011 0.61574 22.4247 0.786337 22.5877C1.59564 23.3603 1.94334 24.3111 2.31135 25.3177C2.68603 26.3427 3.07363 27.4023 3.94376 28.3773C4.41336 28.9035 5.15288 29.6079 6.14975 29.6504C7.24681 29.6965 8.20316 28.9415 9.07566 28.1178C9.64186 27.5833 9.93542 26.9223 10.1297 26.4848C10.1813 26.3686 10.2517 26.2101 10.2843 26.1597C10.4328 25.967 10.5047 25.7719 10.5394 25.6053C10.5741 25.6007 10.6129 25.5961 10.656 25.5916C12.1186 25.4344 13.0451 28.2798 13.5414 29.8072C13.6385 30.1062 13.7303 30.3887 13.816 30.6242C13.9186 30.9066 14.1583 31.117 14.4516 31.182C14.5148 31.196 14.5786 31.2028 14.6419 31.2028C14.8725 31.2028 15.0969 31.1119 15.2629 30.9453C16.027 30.1811 16.4478 29.3705 16.786 28.719C16.992 28.3223 17.2483 27.8286 17.4117 27.7816C17.4676 27.7656 17.801 27.716 18.8333 28.3251C19.194 28.5379 19.5915 28.8623 19.9757 29.176C20.8918 29.9236 21.8387 30.6967 22.8333 30.341C23.7858 30.0001 24.0209 28.8341 24.0981 28.4509C24.2527 27.6845 23.963 27.2069 23.718 26.9301C23.9336 26.8649 24.3154 26.8117 24.5646 26.7769C25.3381 26.6689 26.2146 26.5466 26.7831 25.9772C27.6407 25.118 27.541 23.7511 27.4608 22.6527C27.4524 22.537 27.4428 22.4053 27.4348 22.2712C27.7469 22.7727 28.2516 23.3076 29.0571 23.067C30.1782 22.7321 30.0911 21.4591 30.0491 20.8473C30.042 20.7426 30.0321 20.5988 30.0312 20.5019C30.1941 20.3226 30.5343 20.0666 30.8158 19.8547C31.2686 19.5139 31.7364 19.1618 32.0688 18.7475L32.0744 18.7412C33.1263 17.5423 33.23 17.1365 33.2743 16.9631C33.5378 15.9323 33.201 15.4335 32.8336 15.0108C32.7993 14.9713 32.7634 14.9307 32.7285 14.8859C32.6328 14.7639 32.5235 14.6761 32.4347 14.6054C32.4944 14.5198 32.6019 14.3888 32.7929 14.2095C33.1123 13.9618 34.4468 13.7064 34.811 13.8215C34.9559 13.9147 34.9969 14.0988 35.0165 14.7044C35.0303 15.1387 35.0462 15.6309 35.2872 16.0712C35.5053 16.4698 35.9738 16.9414 36.9683 16.9414C36.981 16.9414 36.9937 16.9413 37.0066 16.9411C38.4009 16.9244 38.9938 15.7348 39.348 15.0239C39.4594 14.8003 39.612 14.4941 39.7024 14.4143C40.1044 14.059 40.5809 13.8236 41.1324 13.5509C41.495 13.3716 41.8702 13.1863 42.2615 12.9483C44.3077 11.7047 45.1691 10.6038 44.9726 9.48427Z" fill="black"/>
</g>
</svg>
